<svg id="Laag_1" data-name="Laag 1" xmlns="http://www.w3.org/2000/svg" viewBox="0 0 768 690"><defs><style>.cls-1{fill:#753f11;}.cls-2{fill:#e6c7ab;}.cls-3,.cls-4{fill:#452912;}.cls-4{font-size:100.15px;font-family:Lato-Regular, Lato;}.cls-5{letter-spacing:-0.04em;}.cls-6{fill:#e26c59;}.cls-7{fill:#904e15;}.cls-8{fill:#fdeedd;}</style></defs><title>Tekengebied 1</title><path class="cls-1" d="M151.89,527.77c1,19.82,15.23,44.37,33.52,55.7,24.38,15.1,63,9.44,91.43,8.49,41.65-.94,97.52,18.88,106.66,61.36,9.14-42.48,65-62.31,106.66-61.36,28.44.95,67,6.61,91.43-8.49,18.28-11.33,32.51-35.87,33.53-55.7,23.35-.87,52.26-12.94,65.6-28.46,17.79-20.7,11.12-53.47,10-77.62-1.11-35.36,22.23-82.8,72.28-90.55-50-7.76-73.39-55.2-72.28-90.55,1.11-24.15,7.78-56.92-10-77.62-13.34-15.52-42.25-27.59-65.6-28.46-1-19.82-15.24-44.37-33.53-55.7-24.38-15.1-63-9.44-91.43-8.5-41.65.94-97.52-18.88-106.66-61.36-9.14,42.48-65,62.3-106.66,61.36-28.45-.94-67-6.61-91.43,8.5-18.28,11.33-32.5,35.87-33.52,55.7-23.35.86-52.26,12.94-65.6,28.46-17.8,20.7-11.12,53.47-10,77.62C77.39,275.94,54,323.37,4,331.13c50,7.76,73.39,55.19,72.28,90.55-1.11,24.15-7.79,56.92,10,77.62C99.63,514.83,128.54,526.9,151.89,527.77Z"/><path class="cls-2" d="M177.54,495.49c.9,17,13.55,38.07,29.81,47.79,21.68,13,56,8.1,81.31,7.29,37-.81,86.71,16.21,94.84,52.65,8.13-36.45,57.82-53.46,94.84-52.65,25.3.81,59.63,5.67,81.31-7.29,16.26-9.72,28.91-30.78,29.81-47.79,20.76-.74,46.47-11.11,58.34-24.42,15.82-17.76,9.89-45.88,8.9-66.6-1-30.34,19.78-71,64.27-77.7-44.49-6.66-65.25-47.36-64.27-77.7,1-20.72,6.92-48.84-8.9-66.6-11.87-13.32-37.58-23.68-58.34-24.42-.9-17-13.55-38.07-29.81-47.79-21.68-13-56-8.1-81.31-7.29-37,.81-86.71-16.2-94.84-52.65-8.13,36.45-57.81,53.46-94.84,52.65-25.3-.81-59.63-5.67-81.31,7.29-16.26,9.72-28.91,30.78-29.81,47.79-20.76.74-46.47,11.1-58.34,24.42-15.83,17.76-9.89,45.88-8.9,66.6,1,30.34-19.78,71-64.27,77.7,44.5,6.66,65.26,47.36,64.27,77.7-1,20.72-6.93,48.84,8.9,66.6C131.07,484.39,156.78,494.75,177.54,495.49Z"/><ellipse class="cls-3" cx="383.5" cy="95.08" rx="10.29" ry="10.14"/><ellipse class="cls-3" cx="383.5" cy="663.46" rx="10.29" ry="10.14"/><ellipse class="cls-3" cx="94.47" cy="382.66" rx="10.29" ry="10.14"/><ellipse class="cls-3" cx="669.44" cy="382.66" rx="10.29" ry="10.14"/><text class="cls-4" transform="translate(183.61 348.94) scale(1.02 1)">PRA<tspan class="cls-5" x="193.79" y="0">L</tspan><tspan x="241.26" y="0">ON</tspan></text><path class="cls-6" d="M387.38,381.34c-.65-18.92-30.45-20.88-29.49-.39.33,7.49,7.45,15.76,11.67,20.88,4.54,5.91,12.8,13.2,17.82,18.91,5-5.72,13.28-13,17.82-18.91,4.21-5.13,11.34-13.4,11.66-20.88C417.83,360.46,388,362.42,387.38,381.34Z"/><path class="cls-1" d="M267.31,246c19.49-17.08,47-.25,67.73,5.23,11.42,3,45.34,7.85,48.46-10.22,3.81-22-32.84-34.16-33.39-14.54,0,1.78,5.19,4.77,5.23,3.45.21-7.65,5-9,11.9-9,17,.2,12.51,19.67,1.59,25.14-17.19,8.61-36.36,1.42-53.06-4.53s-38.49-12.79-53.5.38c-1,.89,3.69,5.22,5,4Z"/><path class="cls-1" d="M499.69,246c-19.48-17.08-47-.25-67.73,5.23-11.41,3-45.33,7.85-48.46-10.22-3.8-22,32.84-34.16,33.39-14.54.05,1.78-5.19,4.77-5.23,3.45-.21-7.65-5-9-11.89-9-17,.2-12.51,19.67-1.6,25.14,17.19,8.61,36.36,1.42,53.07-4.53s38.49-12.79,53.5.38c1,.89-3.68,5.22-5,4Z"/><path class="cls-7" d="M267.31,475.06c19.49,17.09,47,.25,67.73-5.23,11.42-3,45.34-7.85,48.46,10.22,3.81,22-32.84,34.15-33.39,14.54,0-1.78,5.19-4.77,5.23-3.45.21,7.66,5,9,11.9,8.95,17-.19,12.51-19.67,1.59-25.14-17.19-8.61-36.36-1.43-53.06,4.53s-38.49,12.79-53.5-.38c-1-.89,3.69-5.23,5-4Z"/><path class="cls-7" d="M499.69,475.06c-19.48,17.09-47,.25-67.73-5.23-11.41-3-45.33-7.85-48.46,10.22-3.8,22,32.84,34.15,33.39,14.54.05-1.78-5.19-4.77-5.23-3.45-.21,7.66-5,9-11.89,8.95-17-.19-12.51-19.67-1.6-25.14,17.19-8.61,36.36-1.43,53.07,4.53s38.49,12.79,53.5-.38c1-.89-3.68-5.23-5-4Z"/><path class="cls-3" d="M195.56,438.29c-4.75-1.49-10.27,2.75-14.56,5a56.92,56.92,0,0,1-8.72,3.79c-4.29,1.39-5,1.25-5.7-5-.26-2.45-5.93-3.56-6-4.2,1,9.1,7.33,14.33,13.92,14.23,4.55-.07,9.21-2.94,13.38-5.1,3.58-1.85,8.61-5.67,12.58-4.42.9.28-3.58-3.88-4.91-4.3Z"/><path class="cls-3" d="M571.93,438.29c4.75-1.49,10.27,2.75,14.55,5a56.88,56.88,0,0,0,8.73,3.79c4.28,1.39,5,1.25,5.7-5,.26-2.45,5.92-3.56,6-4.2-1,9.1-7.32,14.33-13.91,14.23-4.56-.07-9.22-2.94-13.39-5.1-3.57-1.85-8.61-5.67-12.57-4.42-.9.28,3.57-3.88,4.92-4.3Z"/><path class="cls-8" d="M179,155.83l-6.63-.24a47.64,47.64,0,0,1,1.51-9.4l6.49,1.12A43.42,43.42,0,0,0,179,155.83Zm6.9-22.27-6.07-2.2a75.7,75.7,0,0,1,5.26-8.32l5.71,2.76A70.15,70.15,0,0,0,185.95,133.56Zm15.53-19.23-4.74-3.79a55.69,55.69,0,0,1,7.11-5.06q.95-.57,1.93-1.09l3.64,4.53q-.84.45-1.65.93A49.23,49.23,0,0,0,201.48,114.33Zm23.84-10.84-1.57-5.26a106.36,106.36,0,0,1,11.34-1.58l.71,5.39A98.1,98.1,0,0,0,225.32,103.49Zm65.07-.42-2.66,0c-1.52,0-3-.11-4.56-.18l.37-5.41c1.5.07,3,.13,4.41.17,2,0,4.18,0,6.35,0l.26,5.41Q292.45,103.07,290.39,103.07Zm-25.64-1.18c-3.61-.17-7.28-.31-10.94-.38l.14-5.42c3.75.07,7.49.21,11.19.39Zm48.66-.81-1.35-5.3c3.5-.59,7-1.33,10.42-2.19l2,5.18C320.81,99.68,317.1,100.46,313.4,101.09ZM342.05,93l-3-4.84c3.24-1.32,6.37-2.78,9.3-4.33L352,88.38C348.86,90,345.51,91.6,342.05,93Zm24.82-14.45-4.72-3.81A63,63,0,0,0,369,68.2l5.36,3.19A68.9,68.9,0,0,1,366.87,78.57Zm16.66-21-6.22-1.89a44.92,44.92,0,0,0,2.82-8.26l6.51,1A49.47,49.47,0,0,1,383.53,57.54Z"/><path class="cls-8" d="M587.94,155.83a42.85,42.85,0,0,0-1.37-8.51l6.49-1.13a47.49,47.49,0,0,1,1.51,9.4ZM581,133.56a71,71,0,0,0-4.9-7.76l5.71-2.76a76.37,76.37,0,0,1,5.25,8.32Zm-15.53-19.23a48.8,48.8,0,0,0-6.27-4.47q-.82-.49-1.66-.94l3.64-4.53c.65.35,1.3.71,1.93,1.09a55.71,55.71,0,0,1,7.11,5.06Zm-23.83-10.84A97.9,97.9,0,0,0,531.2,102l.71-5.39a106.05,106.05,0,0,1,11.34,1.58Zm-65.07-.42q-2.06,0-4.17-.07l.26-5.41c2.16.07,4.29.09,6.39,0,1.4,0,2.87-.1,4.37-.17l.37,5.41q-2.3.11-4.52.18C478.39,103.07,477.5,103.07,476.61,103.07Zm25.64-1.18-.39-5.41c3.69-.18,7.44-.32,11.19-.39l.14,5.42C509.53,101.58,505.87,101.72,502.25,101.9Zm-48.66-.81c-3.71-.63-7.41-1.41-11-2.31l2-5.18c3.41.86,6.91,1.59,10.42,2.19ZM424.94,93c-3.46-1.42-6.8-3-9.93-4.63l3.61-4.54c2.93,1.55,6.05,3,9.29,4.33ZM400.13,78.57a68.39,68.39,0,0,1-7.5-7.17L398,68.2a62.49,62.49,0,0,0,6.85,6.55Zm-16.66-21a49.4,49.4,0,0,1-3.12-9.12l6.52-1a44.72,44.72,0,0,0,2.82,8.26Z"/><path class="cls-8" d="M722.71,327.87a82.8,82.8,0,0,1-11.18-2.55l2.31-5.08a75,75,0,0,0,10.12,2.3Zm-28.16-10a75.72,75.72,0,0,1-8.78-6.12l4.66-3.85a69.48,69.48,0,0,0,8,5.6Zm-20.81-18.27a81.68,81.68,0,0,1-5.68-8.11L674,289a76.77,76.77,0,0,0,5.31,7.59ZM661,277.08a84.84,84.84,0,0,1-2.84-9l6.5-1.1a80.13,80.13,0,0,0,2.68,8.5Zm-5.19-24.38c-.05-1.14-.08-2.27-.08-3.39q0-1.09,0-2.17c.06-1.25.13-2.47.22-3.72l6.62.3q-.12,1.83-.21,3.6c0,.63,0,1.31,0,2q0,1.58.08,3.18Zm8-24-6.62-.31c.21-3,.38-5.94.46-8.94l6.63.12C664.2,222.61,664,225.66,663.81,228.68ZM657,204.73a55.66,55.66,0,0,0-1.79-8.55l6.45-1.28a60,60,0,0,1,1.94,9.25Zm-8.44-21.53c-.37-.46-.76-.91-1.15-1.36a45.46,45.46,0,0,0-5.48-5.12l4.65-3.87a51.47,51.47,0,0,1,6.19,5.8c.46.52.91,1,1.34,1.57ZM627.89,168a99.62,99.62,0,0,0-9.5-4l2.69-5a107,107,0,0,1,10.19,4.29Zm-26.35-8.51a77.89,77.89,0,0,0-10.43-1.12l.29-5.41a85.52,85.52,0,0,1,11.51,1.23Z"/><path class="cls-8" d="M591.4,497.61l-.29-5.41a77.16,77.16,0,0,0,10.43-1.12l1.38,5.3A85.43,85.43,0,0,1,591.4,497.61Zm29.68-6.09-2.69-5a99.93,99.93,0,0,0,9.5-4l3.39,4.66A107,107,0,0,1,621.08,491.51Zm25.5-13.76-4.64-3.87a45.38,45.38,0,0,0,5.48-5.12c.4-.45.78-.9,1.15-1.36l5.55,3c-.43.53-.88,1.06-1.34,1.58A51,51,0,0,1,646.59,477.76Zm15.09-22-6.45-1.28a55.67,55.67,0,0,0,1.79-8.55l6.59.58A59.57,59.57,0,0,1,661.67,455.71Zm-4-24.53c-.08-3-.26-6-.46-8.93l6.62-.32c.22,3,.39,6.07.47,9.13Zm-1.65-24c-.08-1.25-.16-2.48-.22-3.68,0-.76,0-1.49,0-2.21,0-1.12,0-2.25.08-3.39l6.63.21q-.08,1.6-.08,3.18c0,.68,0,1.36,0,2,.06,1.14.13,2.34.21,3.56Zm8.67-23.57-6.5-1.1a85.37,85.37,0,0,1,2.83-9l6.34,1.6A80.46,80.46,0,0,0,664.67,383.62ZM674,361.56l-5.93-2.43a81.66,81.66,0,0,1,5.68-8.11L679.3,354A76.69,76.69,0,0,0,674,361.56Zm16.44-18.83-4.66-3.85a75.69,75.69,0,0,1,8.78-6.12l3.91,4.37A69.45,69.45,0,0,0,690.43,342.73Zm23.41-12.37-2.31-5.08a82.65,82.65,0,0,1,11.18-2.54l1.25,5.32A74.82,74.82,0,0,0,713.84,330.36Z"/><path class="cls-8" d="M386.87,603.22l-6.52-1a49.21,49.21,0,0,1,3.12-9.12l6.22,1.89A44.79,44.79,0,0,0,386.87,603.22ZM398,582.4l-5.36-3.19a68.43,68.43,0,0,1,7.5-7.17l4.71,3.81A63.09,63.09,0,0,0,398,582.4Zm20.63-15.64L415,562.22c3.14-1.66,6.48-3.22,9.93-4.63l3,4.84C424.67,563.76,421.55,565.21,418.61,566.77ZM444.52,557l-2-5.18c3.6-.91,7.31-1.69,11-2.32l1.35,5.3C451.43,555.42,447.93,556.15,444.52,557Zm68.53-2.51c-3.75-.07-7.49-.21-11.19-.39l.39-5.41c3.61.17,7.28.32,10.94.38Zm18.85-.54-.71-5.39a97.25,97.25,0,0,0,10.47-1.46l1.57,5.26A106.25,106.25,0,0,1,531.91,554Zm-48.46-.82q-2.24-.11-4.4-.17c-2,0-4.19,0-6.35,0l-.27-5.41c2.31-.08,4.59-.09,6.83,0,1.52,0,3,.11,4.57.18Zm77.78-6.93-3.66-4.51q.85-.46,1.68-.95a49.33,49.33,0,0,0,6.27-4.47l4.74,3.79a55.64,55.64,0,0,1-7.1,5.05C562.52,545.5,561.87,545.86,561.23,546.21Zm20.63-18.64-5.71-2.76a70.72,70.72,0,0,0,4.9-7.75l6.07,2.2A76.34,76.34,0,0,1,581.85,527.57Zm11.21-23.15-6.49-1.12a42.92,42.92,0,0,0,1.37-8.51l6.63.24A47.52,47.52,0,0,1,593.06,504.42Z"/><path class="cls-8" d="M380.13,603.22a44.72,44.72,0,0,0-2.82-8.26l6.22-1.89a49.36,49.36,0,0,1,3.12,9.12ZM369,582.41a63.22,63.22,0,0,0-6.86-6.56l4.72-3.81a68.82,68.82,0,0,1,7.5,7.17Zm-20.63-15.64c-2.93-1.56-6.06-3-9.29-4.34l3-4.84c3.45,1.41,6.8,3,9.94,4.63ZM322.47,557c-3.41-.86-6.91-1.6-10.41-2.19l1.35-5.3c3.71.63,7.41,1.41,11,2.32Zm-68.52-2.51-.14-5.41c3.67-.07,7.33-.21,10.94-.38l.39,5.41C261.44,554.3,257.69,554.44,253.95,554.51ZM235.09,554a106.24,106.24,0,0,1-11.34-1.58l1.57-5.26a97.4,97.4,0,0,0,10.47,1.46Zm48.46-.82-.38-5.41c1.53-.07,3-.13,4.52-.18,2.35-.05,4.56,0,6.87,0L294.3,553c-2.16-.08-4.3-.08-6.39,0C286.51,553,285,553.07,283.55,553.14Zm-77.77-6.93q-1-.53-1.93-1.09a55.42,55.42,0,0,1-7.11-5.05l4.74-3.79a48.68,48.68,0,0,0,6.28,4.47q.82.49,1.66.94Zm-20.64-18.65a75.43,75.43,0,0,1-5.26-8.32l6.07-2.2a70.25,70.25,0,0,0,4.9,7.75Zm-11.21-23.15a47.57,47.57,0,0,1-1.51-9.4l6.63-.24a43.35,43.35,0,0,0,1.37,8.51Z"/><path class="cls-8" d="M175.59,497.61a85.58,85.58,0,0,1-11.52-1.23l1.38-5.3a77.26,77.26,0,0,0,10.43,1.12Zm-29.68-6.1a106.84,106.84,0,0,1-10.19-4.29l3.39-4.66a100.46,100.46,0,0,0,9.5,4ZM120.4,477.75a51.21,51.21,0,0,1-6.2-5.8c-.46-.52-.91-1-1.34-1.58l5.55-3c.37.46.75.91,1.15,1.36a45.2,45.2,0,0,0,5.48,5.12Zm-15.08-22a59.78,59.78,0,0,1-1.94-9.26l6.6-.58a55.18,55.18,0,0,0,1.79,8.55Zm4-24.54-6.63-.12c.08-3.06.26-6.12.47-9.14l6.62.32C109.6,425.19,109.43,428.18,109.35,431.17Zm1.65-24-6.62-.3c.08-1.22.16-2.42.21-3.6,0-.64,0-1.32,0-2q0-1.57-.08-3.18l6.63-.22q.08,1.72.08,3.39c0,.73,0,1.46,0,2.18C111.16,404.71,111.09,405.94,111,407.2Zm-8.68-23.57a79.94,79.94,0,0,0-2.68-8.5l6.34-1.6a84.72,84.72,0,0,1,2.83,9ZM93,361.56A76.48,76.48,0,0,0,87.7,354L93.26,351a82.21,82.21,0,0,1,5.68,8.11ZM76.57,342.72a69.18,69.18,0,0,0-8-5.6l3.91-4.37a75.56,75.56,0,0,1,8.79,6.12ZM53.16,330.36A74.9,74.9,0,0,0,43,328.05l1.25-5.32a82.74,82.74,0,0,1,11.18,2.54Z"/><path class="cls-8" d="M44.29,327.87,43,322.55a75.13,75.13,0,0,0,10.12-2.3l2.31,5.08A82.86,82.86,0,0,1,44.29,327.87Zm28.16-10-3.91-4.37a69.09,69.09,0,0,0,8-5.6l4.67,3.85A75.59,75.59,0,0,1,72.45,317.85Zm20.81-18.27-5.56-2.95A76.34,76.34,0,0,0,93,289.05l5.93,2.43A82.17,82.17,0,0,1,93.26,299.59ZM106,277.08l-6.34-1.6a80.56,80.56,0,0,0,2.68-8.5l6.5,1.1A84.54,84.54,0,0,1,106,277.08Zm5.19-24.38-6.63-.22q.08-1.61.08-3.18,0-1,0-2c-.05-1.14-.13-2.34-.21-3.56l6.62-.3q.13,1.88.22,3.69c0,.75,0,1.48,0,2.21Q111.26,251,111.17,252.71Zm-8-24c-.21-3-.39-6.07-.47-9.13l6.63-.12c.08,3,.25,6,.46,8.93ZM110,204.74l-6.6-.58a60,60,0,0,1,1.94-9.25l6.45,1.28A55.31,55.31,0,0,0,110,204.74Zm8.44-21.53-5.55-3q.64-.8,1.34-1.58a51.41,51.41,0,0,1,6.2-5.8l4.64,3.87a45.43,45.43,0,0,0-5.48,5.12Q119,182.51,118.42,183.2ZM139.1,168l-3.39-4.66a107.42,107.42,0,0,1,10.19-4.29l2.69,5A99.43,99.43,0,0,0,139.1,168Zm26.35-8.51-1.38-5.3A85.61,85.61,0,0,1,175.59,153l.29,5.41A77.78,77.78,0,0,0,165.45,159.53Z"/><polygon class="cls-6" points="361.56 403.97 175.73 403.97 175.73 386.81 349.23 386.66 361.56 403.97"/><polygon class="cls-6" points="413.33 403.97 599.15 403.97 599.15 386.81 425.66 386.66 413.33 403.97"/></svg>